<?xml version="1.0" encoding="UTF-8"?>
<svg id="Layer_2" data-name="Layer 2" xmlns="http://www.w3.org/2000/svg" viewBox="0 0 304.54 50.39">
  <defs>
    <style>
      .cls-1 {
        fill: #d7d9d9;
      }

      .cls-2 {
        fill: #e75836;
      }
    </style>
  </defs>
  <g id="Layer_1-2" data-name="Layer 1">
    <g>
      <rect class="cls-1" x="21.24" y=".82" width="20.96" height="49.57"/>
      <rect class="cls-2" y=".82" width="14.9" height="49.57"/>
      <path class="cls-1" d="M85.7,37.82c-.2,4.97-3.37,10.75-11.27,11.86-2.3.32-5.08.44-8.31.44h-12.96l-4.62-.03V1.12l19.01-.03c1.59,0,3.09.21,4.53.4,5.9.75,10.31,4.69,10.73,11.72.54,9.03-6.73,11.17-6.73,11.17,0,0,10.16,1.24,9.64,13.44ZM56,21.03h5.7c1.42,0,5.35-.1,6.22-.09,4.96.09,7.47-2.38,7.47-6.68,0-3.39-1.8-5.22-5.06-5.97-1.78-.41-3.99-.37-6.57-.37l-7.75-.09v13.19ZM77.85,35.73c0-3.14-2.21-7.29-10.2-7.29l-11.65.03v14.53h9.36c10.11.23,12.5-2.85,12.5-7.26Z"/>
      <path class="cls-1" d="M136.08,25.18c0,15.26-9.79,25.16-24.23,25.16s-24.2-8.48-24.2-25.16S98.47.02,111.84.02c15.29,0,24.23,10.34,24.23,25.16ZM127.91,25.15c0-11.1-7.03-18.68-16.04-18.68s-16.16,7.03-16.16,18.83c.03,12.26,6.65,18.57,16.16,18.57,9.01,0,16.04-7.29,16.04-18.71Z"/>
      <path class="cls-1" d="M178.32,37.82c-.2,4.97-3.37,10.75-11.27,11.86-2.3.32-5.08.44-8.31.44h-12.96l-4.62-.03V1.12l19.01-.03c1.59,0,3.09.21,4.53.4,5.9.75,10.31,4.69,10.73,11.72.54,9.03-6.73,11.17-6.73,11.17,0,0,10.16,1.24,9.64,13.44ZM148.62,21.03h5.7c1.42,0,5.35-.1,6.22-.09,4.96.09,7.47-2.38,7.47-6.68,0-3.39-1.8-5.22-5.06-5.97-1.78-.41-3.99-.37-6.57-.37l-7.75-.09v13.19ZM170.48,35.73c0-3.14-2.21-7.29-10.2-7.29l-11.65.03v14.53h9.36c10.11.23,12.5-2.85,12.5-7.26Z"/>
      <path class="cls-1" d="M228.7,25.16c0,15.26-9.79,25.16-24.23,25.16s-24.2-8.48-24.2-25.16S191.1,0,204.46,0c15.29,0,24.23,10.34,24.23,25.16ZM220.53,25.13c0-11.1-7.03-18.68-16.04-18.68s-16.16,7.03-16.16,18.83c.03,12.26,6.65,18.57,16.16,18.57,9.01,0,16.04-7.29,16.04-18.71Z"/>
      <path class="cls-1" d="M266.79,1.35v6.99h-14.41v41.87h-8.14V8.34h-14.64V1.35h37.18Z"/>
      <path class="cls-1" d="M304.54,1.33v48.87h-7.53l-.03-21.74h-22.49l-.03,21.74h-7.67V1.33h7.53v19.44h22.58V1.33h7.64Z"/>
    </g>
  </g>
</svg>